# Blender v2.92.0 OBJ File: ''
# www.blender.org
mtllib clothModel1.mtl
o Plane.001_Plane.004
v -2.321980 3.511026 3.126125
v 3.103589 3.511026 3.126125
v -2.321980 3.511026 -2.299444
v 3.103589 3.511026 -2.299444
v -2.321980 3.511026 0.413340
v 0.390804 3.511026 3.126125
v 3.103589 3.511026 0.413340
v 0.390804 3.511026 -2.299444
v 0.390804 3.511026 0.413340
vt 1.000000 0.500000
vt 0.500000 1.000000
vt 0.500000 0.500000
vt 0.000000 1.000000
vt 0.000000 0.500000
vt 0.500000 0.000000
vt 0.000000 0.000000
vt 1.000000 0.000000
vt 1.000000 1.000000
vn 0.0000 1.0000 0.0000
usemtl None
s off
f 7/1/1 8/2/1 9/3/1
f 9/3/1 3/4/1 5/5/1
f 6/6/1 5/5/1 1/7/1
f 2/8/1 9/3/1 6/6/1
f 7/1/1 4/9/1 8/2/1
f 9/3/1 8/2/1 3/4/1
f 6/6/1 9/3/1 5/5/1
f 2/8/1 7/1/1 9/3/1
