# Blender v2.92.0 OBJ File: ''
# www.blender.org
o Icosphere_Icosphere.002
v -0.060248 -0.414827 -0.122702
v 2.306587 -0.009601 1.491165
v -0.964280 -0.009601 2.488614
v -2.985810 -0.009598 -0.122702
v -0.964280 -0.009601 -2.734018
v 2.306587 -0.009601 -1.736570
v 0.843785 0.646086 2.488614
v -2.427082 0.646086 1.491165
v -2.427082 0.646086 -1.736570
v 0.843785 0.646086 -2.734018
v 2.865315 0.646083 -0.122702
v -0.060248 1.051313 -0.122702
v -0.591620 -0.305347 1.412179
v 1.330933 -0.305347 0.825899
v 0.799565 -0.067160 2.360795
v 2.722121 -0.067159 -0.122702
v 1.330933 -0.305347 -1.071303
v -1.779848 -0.305345 -0.122702
v -2.311234 -0.067159 1.412184
v -0.591620 -0.305347 -1.657584
v -2.311234 -0.067159 -1.657589
v 0.799565 -0.067160 -2.606200
v 3.050551 0.318243 0.825902
v 3.050551 0.318243 -1.071307
v -0.060248 0.318243 2.947090
v 1.862330 0.318243 2.360811
v -3.171046 0.318243 0.825902
v -1.982825 0.318243 2.360811
v -1.982825 0.318243 -2.606215
v -3.171046 0.318243 -1.071307
v 1.862330 0.318243 -2.606215
v -0.060248 0.318243 -3.192494
v 2.190739 0.703644 1.412184
v -0.920060 0.703645 2.360795
v -2.842616 0.703644 -0.122702
v -0.920060 0.703645 -2.606200
v 2.190739 0.703644 -1.657589
v 0.471125 0.941832 1.412179
v 1.659353 0.941830 -0.122702
v -1.451428 0.941832 0.825899
v -1.451428 0.941832 -1.071303
v 0.471125 0.941832 -1.657584
vt 0.818181 0.000000
vt 0.772726 0.078731
vt 0.863635 0.078731
vt 0.727272 0.157461
vt 0.681818 0.078731
vt 0.636363 0.157461
vt 0.090909 0.000000
vt 0.045454 0.078731
vt 0.136363 0.078731
vt 0.272727 0.000000
vt 0.227273 0.078731
vt 0.318182 0.078731
vt 0.454545 0.000000
vt 0.409090 0.078731
vt 0.500000 0.078731
vt 0.681818 0.236191
vt 0.909090 0.157461
vt 0.818181 0.157461
vt 0.863635 0.236191
vt 0.181818 0.157461
vt 0.090909 0.157461
vt 0.136363 0.236191
vt 0.363636 0.157461
vt 0.272727 0.157461
vt 0.318182 0.236191
vt 0.545454 0.157461
vt 0.454545 0.157461
vt 0.500000 0.236191
vt 0.772726 0.236191
vt 0.954545 0.236191
vt 0.227273 0.236191
vt 0.409090 0.236191
vt 0.590909 0.236191
vt 0.818181 0.314921
vt 0.727272 0.314921
vt 0.772726 0.393651
vt 1.000000 0.314921
vt 0.909091 0.314921
vt 0.954545 0.393651
vt 0.272727 0.314921
vt 0.181818 0.314921
vt 0.227273 0.393651
vt 0.454545 0.314921
vt 0.363636 0.314921
vt 0.409090 0.393651
vt 0.636363 0.314921
vt 0.545454 0.314921
vt 0.590909 0.393651
vt 0.500000 0.393651
vt 0.545454 0.472382
vt 0.318182 0.393651
vt 0.363636 0.472382
vt 0.136363 0.393651
vt 0.181818 0.472382
vt 0.090909 0.314921
vt 0.863635 0.393651
vt 0.909090 0.472382
vt 0.681818 0.393651
vt 0.727272 0.472382
vt 0.045454 0.236191
vt 0.000000 0.157461
vt 0.590909 0.078731
vt 0.636363 0.000000
vn 0.0242 -0.9965 0.0795
vn 0.2298 -0.9687 0.0937
vn -0.0635 -0.9968 0.0491
vn -0.0635 -0.9968 -0.0491
vn 0.0242 -0.9965 -0.0795
vn 0.5162 -0.8408 0.1629
vn 0.0139 -0.8261 0.5634
vn -0.5072 -0.8403 0.1914
vn -0.3243 -0.8319 -0.4503
vn 0.3014 -0.8311 -0.4673
vn 0.6922 -0.4834 0.5359
vn -0.2574 -0.4706 0.8440
vn -0.8706 -0.4919 0.0000
vn -0.2574 -0.4706 -0.8440
vn 0.6922 -0.4834 -0.5359
vn 0.1339 0.9665 0.2192
vn -0.1543 0.9668 0.2035
vn -0.2298 0.9687 -0.0937
vn 0.0126 0.9653 -0.2609
vn 0.2376 0.9690 -0.0681
vn 0.0635 0.9968 -0.0491
vn 0.1364 0.9850 -0.1056
vn 0.1339 0.9665 -0.2192
vn -0.0242 0.9965 -0.0795
vn -0.0521 0.9839 -0.1707
vn -0.1543 0.9668 -0.2035
vn -0.0785 0.9969 0.0000
vn -0.1688 0.9857 0.0000
vn -0.2298 0.9687 0.0937
vn -0.0242 0.9965 0.0795
vn -0.0521 0.9839 0.1707
vn 0.0126 0.9653 0.2609
vn 0.0635 0.9968 0.0491
vn 0.1364 0.9850 0.1056
vn 0.2376 0.9690 0.0681
vn 0.5072 0.8403 -0.1914
vn 0.6076 0.6400 -0.4704
vn 0.3243 0.8319 -0.4503
vn -0.0139 0.8261 -0.5634
vn -0.2273 0.6268 -0.7453
vn -0.3014 0.8311 -0.4673
vn -0.5162 0.8408 -0.1629
vn -0.7611 0.6486 0.0000
vn -0.5162 0.8408 0.1629
vn -0.3014 0.8311 0.4673
vn -0.2273 0.6268 0.7453
vn -0.0139 0.8261 0.5634
vn 0.3243 0.8319 0.4503
vn 0.6076 0.6400 0.4704
vn 0.5072 0.8403 0.1914
vn 0.2574 0.4706 -0.8440
vn 0.2273 -0.6268 -0.7453
vn 0.0139 -0.8261 -0.5634
vn -0.6922 0.4834 -0.5359
vn -0.6076 -0.6400 -0.4704
vn -0.5072 -0.8403 -0.1914
vn -0.6922 0.4834 0.5359
vn -0.6076 -0.6400 0.4704
vn -0.3243 -0.8319 0.4503
vn 0.2574 0.4706 0.8440
vn 0.2273 -0.6268 0.7453
vn 0.3014 -0.8311 0.4673
vn 0.8706 0.4919 0.0000
vn 0.7611 -0.6486 0.0000
vn 0.5162 -0.8408 -0.1629
vn 0.1543 -0.9668 -0.2035
vn 0.0521 -0.9839 -0.1707
vn -0.0126 -0.9653 -0.2609
vn -0.1339 -0.9665 -0.2192
vn -0.1364 -0.9850 -0.1056
vn -0.2376 -0.9690 -0.0681
vn -0.2376 -0.9690 0.0681
vn -0.1364 -0.9850 0.1056
vn -0.1339 -0.9665 0.2192
vn 0.2298 -0.9687 -0.0937
vn 0.1688 -0.9857 0.0000
vn 0.0785 -0.9969 0.0000
vn -0.0126 -0.9653 0.2609
vn 0.0521 -0.9839 0.1707
vn 0.1543 -0.9668 0.2035
s off
f 1/1/1 14/2/1 13/3/1
f 2/4/2 14/5/2 16/6/2
f 1/7/3 13/8/3 18/9/3
f 1/10/4 18/11/4 20/12/4
f 1/13/5 20/14/5 17/15/5
f 2/4/6 16/6/6 23/16/6
f 3/17/7 15/18/7 25/19/7
f 4/20/8 19/21/8 27/22/8
f 5/23/9 21/24/9 29/25/9
f 6/26/10 22/27/10 31/28/10
f 2/4/11 23/16/11 26/29/11
f 3/17/12 25/19/12 28/30/12
f 4/20/13 27/22/13 30/31/13
f 5/23/14 29/25/14 32/32/14
f 6/26/15 31/28/15 24/33/15
f 7/34/16 33/35/16 38/36/16
f 8/37/17 34/38/17 40/39/17
f 9/40/18 35/41/18 41/42/18
f 10/43/19 36/44/19 42/45/19
f 11/46/20 37/47/20 39/48/20
f 39/48/21 42/49/21 12/50/21
f 39/48/22 37/47/22 42/49/22
f 37/47/23 10/43/23 42/49/23
f 42/45/24 41/51/24 12/52/24
f 42/45/25 36/44/25 41/51/25
f 36/44/26 9/40/26 41/51/26
f 41/42/27 40/53/27 12/54/27
f 41/42/28 35/41/28 40/53/28
f 35/41/29 8/55/29 40/53/29
f 40/39/30 38/56/30 12/57/30
f 40/39/31 34/38/31 38/56/31
f 34/38/32 7/34/32 38/56/32
f 38/36/33 39/58/33 12/59/33
f 38/36/34 33/35/34 39/58/34
f 33/35/35 11/46/35 39/58/35
f 24/33/36 37/47/36 11/46/36
f 24/33/37 31/28/37 37/47/37
f 31/28/38 10/43/38 37/47/38
f 32/32/39 36/44/39 10/43/39
f 32/32/40 29/25/40 36/44/40
f 29/25/41 9/40/41 36/44/41
f 30/31/42 35/41/42 9/40/42
f 30/31/43 27/22/43 35/41/43
f 27/22/44 8/55/44 35/41/44
f 28/30/45 34/38/45 8/37/45
f 28/30/46 25/19/46 34/38/46
f 25/19/47 7/34/47 34/38/47
f 26/29/48 33/35/48 7/34/48
f 26/29/49 23/16/49 33/35/49
f 23/16/50 11/46/50 33/35/50
f 31/28/51 32/32/51 10/43/51
f 31/28/52 22/27/52 32/32/52
f 22/27/53 5/23/53 32/32/53
f 29/25/54 30/31/54 9/40/54
f 29/25/55 21/24/55 30/31/55
f 21/24/56 4/20/56 30/31/56
f 27/22/57 28/60/57 8/55/57
f 27/22/58 19/21/58 28/60/58
f 19/21/59 3/61/59 28/60/59
f 25/19/60 26/29/60 7/34/60
f 25/19/61 15/18/61 26/29/61
f 15/18/62 2/4/62 26/29/62
f 23/16/63 24/33/63 11/46/63
f 23/16/64 16/6/64 24/33/64
f 16/6/65 6/26/65 24/33/65
f 17/15/66 22/27/66 6/26/66
f 17/15/67 20/14/67 22/27/67
f 20/14/68 5/23/68 22/27/68
f 20/12/69 21/24/69 5/23/69
f 20/12/70 18/11/70 21/24/70
f 18/11/71 4/20/71 21/24/71
f 18/9/72 19/21/72 4/20/72
f 18/9/73 13/8/73 19/21/73
f 13/8/74 3/61/74 19/21/74
f 16/6/75 17/62/75 6/26/75
f 16/6/76 14/5/76 17/62/76
f 14/5/77 1/63/77 17/62/77
f 13/3/78 15/18/78 3/17/78
f 13/3/79 14/2/79 15/18/79
f 14/2/80 2/4/80 15/18/80
